<svg fill="currentColor" xmlns="http://www.w3.org/2000/svg" viewBox="0 0 3991 646">
    <title>Magic Eden</title>
    <path d="M3088.75 398.125h-69.375c-5.313 0-10.313-2.188-14.375-5.938-3.75-3.75-5.938-8.75-6.25-14.062v-15.938c0-5.312 2.188-10.312 6.25-14.062 3.75-3.75 8.75-5.938 14.375-5.938h59.375c5.313 0 10.625-2.187 14.375-5.937 3.75-3.75 5.937-8.75 5.937-14.063 0-5.312-2.187-10.312-5.937-14.062-3.75-3.75-9.063-5.938-14.375-5.938h-59.688c-5.312 0-10.312-2.187-14.374-5.937-3.751-3.75-5.938-8.75-6.251-14.063l.001-15.937c-.001-5.313 2.187-10.313 6.249-14.063 3.751-3.75 8.751-5.937 14.376-5.937h67.812c5.313 0 10.625-2.188 14.375-5.938 3.75-3.75 5.938-8.749 5.938-14.062-.001-5.313-2.188-10.312-5.938-14.063-3.75-3.75-9.063-5.937-14.375-5.937h-81.563c-3.124 0-6.249.938-8.749 2.813-2.5 1.875-4.063 4.687-4.688 7.812l-43.438 202.188.001 4.062c.624 4.688 3.124 9.063 7.187 11.875 3.75 3.125 8.438 4.375 13.438 4.062h119.687c5.313 0 10.625-2.187 14.375-5.937 3.75-3.75 5.938-8.75 5.938-14.063-.001-5.312-2.188-10.312-5.938-14.062-3.75-3.75-9.063-5.938-14.375-5.938v-.937Zm-1508.12-191.25h-27.188c-4.062 0-7.812 1.25-11.25 3.438-3.437 2.187-5.937 5-7.812 8.749l-59.688 141.875c0 .313 0 .625-.312.938-.313.312-.625.312-.938.312-1.25 0-1.25 0-1.25-1.25l-59.687-141.875c-1.563-3.75-3.75-6.875-6.875-9.375-5.313-4.062-12.188 1.25-13.438 8.125l-45.312 204.375c-.313 2.188 0 4.688 1.25 6.563 1.562 3.125 4.062 5.937 7.187 7.812s6.875 2.813 10.313 2.813h8.125c5.312-.313 10.312-2.5 14.062-6.25s5.938-8.75 5.938-13.75v-131.25c0-.313 0-.625.312-.938.313-.312.625-.312.938-.312.312 0 .625 0 .937.313.313.312.313.625.313.937l55.625 137.813c1.562 3.75 4.062 6.875 7.5 9.062 3.437 2.188 7.5 3.125 11.562 3.125h5.313c4.062 0 7.812-1.25 11.25-3.438 3.437-2.187 5.937-5 7.812-8.75l55.625-136.562c0-.313 0-.625.313-.938.312-.312.625-.312.937-.312.313 0 .625 0 .938.313.312.312.312.625.312.937v130c0 5.313 2.188 10.312 6.25 14.062 3.75 3.75 8.75 5.938 14.375 5.938h8.125c5.313 0 10.313-2.188 14.375-5.938 3.75-3.75 5.938-8.75 6.25-14.062V226.562c-.937-5.312-3.75-10.312-7.812-13.75-3.75-3.437-9.063-5.624-14.375-5.937Zm622.188 108.437h-59.688c-5 0-10 1.875-13.438 5.625-3.437 3.438-5.624 8.438-5.624 13.125-.001 5 1.874 9.688 5.624 13.125 3.438 3.438 8.438 5.625 13.438 5.625h10.938c10.937 0 21.874 9.375 16.249 20-8.124 17.5-24.374 26.875-50.312 26.875-38.125 0-61.25-28.125-61.25-76.25s24.375-76.25 61.25-76.25c8.438-.312 16.875 1.25 24.688 5 7.499 3.751 14.062 9.375 18.749 16.251 2.188 3.75 5.313 7.187 9.063 9.687 3.75 2.5 8.125 3.75 12.813 3.75h12.187c2.812.313 5.625-.312 8.125-1.25 2.5-.937 4.688-2.812 6.563-4.687 1.874-2.188 2.812-4.688 3.437-7.188.625-2.812.313-5.312-.313-8.125-8.437-17.5-21.874-32.187-39.062-42.187-16.875-10-36.563-15-56.25-14.063-62.5 0-110 44.063-110 119.063s44.687 119.062 111.25 119.062c59.688 0 101.875-37.5 101.875-97.812v-9.375c0-2.5-.313-5.313-1.563-7.813-.937-2.5-2.499-4.687-4.374-6.562-1.876-1.875-4.063-3.438-6.563-4.375-2.5-.938-5-1.25-7.813-1.25Zm-353.125-95.001c-1.25-3.75-4.062-7.187-7.5-9.687-3.437-2.5-7.5-3.75-11.562-3.75h-35.313c-4.062 0-8.125 1.25-11.562 3.75-3.438 2.5-5.938 5.625-7.5 9.687l-67.813 192.5c-.937 3.125-1.25 6.25-.937 9.375.313 3.125 1.562 6.25 3.438 8.75a23.097 23.097 0 0 0 7.187 6.25c2.812 1.563 5.937 2.188 9.062 2.5h10.938c4.062 0 8.125-1.25 11.562-3.75 3.438-2.5 5.938-5.625 7.5-9.687l8.125-25.313c1.25-3.75 4.063-7.187 7.5-9.687 3.438-2.5 7.5-3.75 11.563-3.75h55.625c4.062 0 8.125 1.25 11.563 3.75 3.437 2.5 5.937 5.625 7.499 9.687l8.126 25.313c1.249 3.75 4.062 7.187 7.499 9.687 3.438 2.5 7.5 3.75 11.563 3.75h10.938c3.124 0 6.249-.937 9.062-2.5a23.097 23.097 0 0 0 7.187-6.25c1.875-2.5 3.125-5.625 3.438-8.75.313-3.125.313-6.25-.938-9.375l-66.25-192.5Zm-34.687 127.188h-4.063c-3.125 0-6.25-.937-9.375-2.5a23.109 23.109 0 0 1-7.187-6.25c-1.875-2.5-3.125-5.625-3.438-8.75-.312-3.125-.312-6.25.938-9.375l20.312-61.562c0-.313 0-.626.313-.938.312-.312.625-.312.937-.312.313 0 .625 0 .938.312.312.313.312.625.312.938l20.313 61.562c.625 3.125.625 6.25 0 9.375s-1.875 5.938-4.063 8.75a23.109 23.109 0 0 1-7.187 6.25c-2.188 1.25-5.313 2.188-8.75 2.5Zm545.312-140.625h-9.375c-5.312 0-10.312 2.188-14.375 5.937-3.75 3.751-5.937 8.75-6.25 14.063v192.813c0 5.312 2.188 10.312 6.25 14.062 3.75 3.75 8.75 5.937 14.375 5.937h9.375c5.313 0 10.313-2.187 14.375-5.937 3.75-3.75 5.938-8.75 6.25-14.062V226.874c-.312-5.313-2.5-10-6.25-13.75-4.062-3.75-9.062-5.937-14.375-6.25Zm237.813 40c9.062-.313 18.125 1.875 26.25 5.937 8.125 4.375 15 10.313 20 18.125 1.875 4.688 5 8.75 9.063 11.563 4.062 2.812 9.062 4.375 14.062 4.375h9.375c2.813.312 5.625-.313 8.125-1.25 2.5-.938 4.687-2.813 6.562-4.688 1.875-2.187 2.813-4.687 3.438-7.187.625-2.813.312-5.313-.313-8.125-13.437-40.313-50.312-62.813-97.812-62.813-62.5 0-110 42.813-110 119.063s46.25 119.062 110 119.062c50.312 0 84.375-26.875 96.562-60.312.938-2.5.938-5.313.313-8.125-.625-2.812-1.875-5.313-3.438-7.187-1.874-2.188-4.062-3.751-6.562-4.688-2.5-.937-5.312-1.562-8.125-1.25h-10.937c-5 .313-9.688 2.188-13.75 5-4.063 2.813-7.188 6.563-9.375 11.25-4.376 7.813-11.25 14.063-19.063 18.125-7.812 4.375-16.875 6.25-25.937 5.938-35.313 0-59.688-26.875-59.688-76.25.313-49.688 24.688-76.563 61.25-76.563Zm703.75-40h-63.75c-5.313 0-10.313 2.188-14.375 5.937-3.75 3.751-5.938 8.75-6.25 14.063v192.813c0 5.312 2.187 10.312 6.25 14.062 3.75 3.75 8.75 5.937 14.375 5.937h63.75c71.875 0 115.625-44.062 115.625-116.562 0-72.187-45-116.25-115.625-116.25Zm-2.813 190h-10.937c-5.313 0-10.313-2.188-14.375-5.938-3.75-3.75-5.938-8.749-6.25-14.062V268.436c0-5.312 2.187-10.312 6.25-14.062 3.75-3.75 8.75-5.938 14.375-5.938h10.937c44.688 0 67.813 22.813 67.813 73.75.312 50.626-22.813 74.688-67.813 74.688Zm362.813 1.25h-69.375c-5.313 0-10.313-2.188-14.375-5.938-3.75-3.75-5.938-8.75-6.25-14.062v-15.938c0-5.312 2.187-10.312 6.25-14.062 3.75-3.75 8.75-5.938 14.375-5.938h59.687c5.313 0 10.625-2.187 14.375-5.937 3.75-3.75 5.938-8.75 5.938-14.063 0-5.312-2.188-10.312-5.938-14.062-3.75-3.75-9.062-5.938-14.375-5.938h-59.687c-5.313 0-10.313-2.187-14.375-5.937-3.75-3.75-5.938-8.75-6.25-14.062v-15.938c0-5.313 2.187-10.312 6.25-14.063 3.75-3.75 8.75-5.937 14.375-5.937h67.812c5.313 0 10.625-2.188 14.375-5.937 3.75-3.751 5.938-8.75 5.938-14.063 0-5.313-2.188-10.312-5.938-14.062-3.75-3.751-9.062-5.938-14.375-5.938h-118.125c-5.312 0-10.312 2.188-14.374 5.938-3.751 3.75-5.938 8.749-6.25 14.062v192.812c0 5.313 2.187 10.313 6.25 14.063 3.75 3.75 8.749 5.937 14.374 5.937h119.688c5.312 0 10.312-2.187 14.375-5.937 3.75-3.75 5.937-8.75 6.25-14.063 0-2.499-.313-5.312-1.563-7.812-.937-2.5-2.5-4.688-4.375-6.563s-4.062-3.437-6.562-4.375c-2.813-1.562-5.313-2.187-8.125-2.187Zm307.187-191.25h-9.375c-5.312 0-10.312 2.188-14.375 5.937-3.75 3.751-5.937 8.75-6.25 14.063v124.375c0 1.25 0 1.25-1.25 1.25h-1.25l-95-136.563c-1.875-2.5-4.375-4.687-7.187-5.937-2.813-1.25-5.938-2.188-9.063-1.875h-12.812c-5.313 0-10.313 2.187-14.375 5.937-3.75 3.75-5.938 8.75-6.25 14.063v192.812c0 5.313 2.187 10.313 6.25 14.063 3.75 3.75 8.75 5.937 14.375 5.937h9.375c5.312 0 10.312-2.187 14.375-5.937 3.75-3.75 5.937-8.75 6.25-14.063V294.999c0-.313 0-.625.312-.938.313-.312.625-.312.938-.312h1.25l96.562 136.562c1.875 2.5 4.375 4.688 7.188 5.938 2.812 1.25 5.937 2.188 9.062 1.875h12.188c5.312 0 10.312-2.188 14.375-5.937 3.75-3.751 5.937-8.75 6.25-14.063V225.311c-.938-5-3.438-9.687-7.188-12.812-4.375-3.438-9.375-5.313-14.375-5.625Zm-3208.75-42.5 62.813 74.063c7.187 8.437 13.437 14.999 16.25 19.062 18.75 18.75 29.375 44.063 29.375 70.313-1.875 30.937-21.875 52.187-40.625 75l-44.063 51.562-22.812 26.875c-.938.938-1.25 2.188-1.563 3.438-.312 1.25 0 2.5.625 3.437.625 1.25 1.25 2.188 2.5 2.813.938.625 2.188.937 3.438.937h229.375c35 0 79.062 29.375 76.562 74.063 0 20.312-8.437 39.687-22.812 54.062-14.688 14.375-34.375 22.5-55 22.5H635.006c-23.75 0-87.188 2.5-105-51.562-3.75-11.25-4.375-23.438-1.563-35.001 5.313-17.187 13.438-33.437 24.063-47.812 18.125-26.875 37.5-53.437 56.875-79.375 25-34.062 50.312-66.875 75.625-101.562.937-1.25 1.25-2.5 1.25-4.063 0-1.562-.625-2.812-1.25-4.062l-91.25-107.188c-.625-.625-1.25-1.25-2.188-1.875-.937-.312-1.875-.625-2.812-.625-.938 0-1.875.313-2.813.625-.937.313-1.562.938-2.187 1.875-24.375 32.5-131.563 176.563-154.375 205.938-22.813 29.062-79.063 30.937-110.313 0l-142.812-141.25c-.938-.938-2.188-1.563-3.438-1.875-1.25-.313-2.5 0-3.75.312-1.25.625-2.187 1.25-2.812 2.5-.625.938-1.25 2.188-.938 3.438v271.562c.313 19.375-5.312 38.125-16.562 54.063-11.25 15.937-26.875 27.812-45.313 34.375-11.875 4.062-24.375 5.312-36.562 3.437-12.188-1.875-24.063-6.25-34.063-13.437-10.312-7.188-18.437-16.563-24.062-27.5-5.625-10.938-8.75-23.125-8.75-35.313V79.686c.937-17.5 7.187-34.375 18.437-48.437 11.25-13.75 26.25-23.75 43.438-28.438 14.687-3.75 30.312-3.75 45 0 14.687 4.063 28.125 11.563 39.062 22.5l219.688 216.563c.625.625 1.562 1.25 2.187 1.562.938.313 1.875.313 2.813.313.937 0 1.875-.313 2.5-.938.937-.312 1.562-.937 2.187-1.875L531.256 28.124c7.187-8.75 16.25-15.625 26.562-20.313 10.313-4.687 21.563-7.5 32.813-7.5h405.625c11.25 0 22.187 2.5 32.187 6.875 10 4.688 19.063 11.25 26.563 19.375 7.187 8.125 12.812 17.813 15.937 28.438s4.063 21.562 2.5 32.5c-2.812 18.75-12.5 35.937-27.187 48.125-14.688 12.187-33.438 19.062-52.813 18.75H766.256c-1.25 0-2.188.312-3.125.937-.938.625-1.875 1.563-2.188 2.5-.625.938-.625 2.188-.625 3.125-.937 1.25-.625 2.5 0 3.438Z"/>
</svg>
