<svg fill="currentColor" xmlns="http://www.w3.org/2000/svg" viewBox="0 0 2334 700">
    <title>OKX</title>
    <path d="M684.425 0H15.544C7.017 0 0 7.017 0 15.544V684.428c0 4.125 1.638 8.081 4.556 10.997a15.547 15.547 0 0 0 10.997 4.556h668.885c8.527 0 15.543-7.016 15.543-15.543V15.544C699.981 7.017 692.965 0 684.438 0h-.013ZM466.653 451.1v.003c0 8.532-7.021 15.553-15.553 15.553H248.881a15.573 15.573 0 0 1-11-4.556 15.57 15.57 0 0 1-4.553-11V248.881c0-8.532 7.021-15.553 15.553-15.553H451.1c4.125 0 8.081 1.638 10.997 4.556a15.547 15.547 0 0 1 4.556 10.997V451.1Zm1618.12-217.747h-202.219c-8.532 0-15.553 7.021-15.553 15.553v202.219c0 8.534 7.023 15.556 15.557 15.556h202.215c8.534 0 15.556-7.022 15.556-15.556V248.906c0-8.532-7.021-15.553-15.553-15.553h-.003ZM1851.351.019h-202.215c-8.534 0-15.557 7.022-15.557 15.556v202.216c0 8.534 7.023 15.556 15.557 15.556h202.215c8.534 0 15.557-7.022 15.557-15.556V15.572c0-8.532-7.021-15.553-15.554-15.553h-.003Zm466.657 0h-202.219c-8.534 0-15.556 7.022-15.556 15.556v202.216c0 8.534 7.022 15.556 15.556 15.556h202.219c8.532 0 15.553-7.021 15.553-15.553V15.572c0-8.532-7.021-15.553-15.553-15.553Zm-466.657 466.65h-202.218c-8.533 0-15.554 7.021-15.554 15.553v202.219c0 8.534 7.023 15.556 15.557 15.556h202.215c8.534 0 15.557-7.022 15.557-15.556V482.222c0-8.532-7.021-15.553-15.554-15.553h-.003Zm466.657 0H2115.786c-8.533 0-15.553 7.021-15.553 15.553v202.219c0 8.534 7.022 15.556 15.556 15.556h202.219c8.532 0 15.553-7.021 15.553-15.553V482.222c0-8.532-7.021-15.553-15.553-15.553ZM1501.067.019h-202.216c-8.534 0-15.556 7.022-15.556 15.556v202.216c0 8.534 7.022 15.556 15.556 15.556h202.216c8.534 0 15.556-7.022 15.556-15.556V15.575c0-8.534-7.022-15.556-15.556-15.556Zm0 466.65h-202.219c-8.532 0-15.553 7.021-15.553 15.553v202.219c0 8.534 7.022 15.556 15.556 15.556h202.216c8.534 0 15.556-7.022 15.556-15.556V482.222c0-8.532-7.021-15.553-15.553-15.553h-.003Zm-217.772-217.963c-.002-8.532-7.024-15.553-15.556-15.553h-217.772V15.556c0-8.534-7.022-15.556-15.556-15.556H832.182c-8.527 0-15.543 7.017-15.543 15.544v668.544c0 8.527 7.016 15.543 15.544 15.543h202.231c8.532 0 15.553-7.021 15.553-15.553V466.481h217.772c8.531-.007 15.549-7.025 15.556-15.556V248.706Z"/>
</svg>
