<svg fill="currentColor" xmlns="http://www.w3.org/2000/svg" viewBox="0 0 1259 267">
    <title>Unisat</title>
    <path d="m149.89 23.995 55.635 54.2c4.736 4.603 7.067 9.262 6.993 13.956-.073 4.694-2.111 8.973-6.093 12.854-4.167 4.063-8.664 6.121-13.473 6.211-4.809.073-9.582-2.202-14.318-6.806l-56.901-55.428c-6.461-6.301-12.702-10.76-18.704-13.378-6.003-2.618-12.317-3.034-18.925-1.228-6.626 1.787-13.729 6.391-21.347 13.794-10.499 10.237-15.51 19.842-14.996 28.815.514 8.973 5.727 18.289 15.62 27.913l57.361 55.897c4.791 4.657 7.14 9.315 7.066 13.938-.073 4.64-2.129 8.919-6.185 12.872-4.038 3.936-8.499 5.995-13.345 6.157-4.845.163-9.673-2.094-14.445-6.752l-55.635-54.2c-9.05-8.811-15.584-17.152-19.604-25.024s-5.525-16.773-4.479-26.703c.936-8.503 3.708-16.736 8.334-24.716 4.607-7.981 11.215-16.141 19.787-24.501 10.205-9.948 19.952-17.567 29.24-22.875C80.745 3.683 89.721.74 98.385.126c8.682-.613 17.235 1.084 25.697 5.092 8.462 4.008 17.053 10.255 25.79 18.777h.018Z"/>
    <path d="m62.61 242.69-55.617-54.2C2.258 183.868-.073 179.228 0 174.534c.073-4.694 2.111-8.973 6.094-12.855 4.167-4.062 8.664-6.121 13.473-6.211 4.809-.072 9.581 2.184 14.317 6.807l56.883 55.428c6.48 6.3 12.702 10.76 18.704 13.378 6.003 2.618 12.317 3.015 18.943 1.227 6.626-1.787 13.73-6.391 21.347-13.811 10.5-10.237 15.511-19.842 14.997-28.815-.514-8.974-5.727-18.29-15.621-27.931l-30.561-29.519c-4.791-4.658-7.141-9.317-7.067-13.938.073-4.64 2.129-8.919 6.186-12.873 4.038-3.936 8.498-5.994 13.344-6.157 4.846-.162 9.673 2.094 14.446 6.753l28.817 27.822c9.05 8.81 15.584 17.151 19.604 25.024 4.02 7.871 5.525 16.772 4.479 26.702-.936 8.504-3.708 16.737-8.334 24.717-4.607 7.98-11.215 16.141-19.787 24.5-10.205 9.948-19.952 17.567-29.24 22.875-9.288 5.308-18.263 8.269-26.945 8.883-8.682.614-17.236-1.083-25.698-5.091-8.462-4.009-17.052-10.255-25.789-18.777l.018.018ZM97.302 102.839c11.283 0 20.429-8.996 20.429-20.095 0-11.098-9.146-20.094-20.429-20.094-11.283 0-20.43 8.996-20.43 20.094 0 11.099 9.147 20.095 20.43 20.095Z"/>
    <path d="M286.588 66.276h25.652v101.432c0 17.709 2.778 30.556 8.333 38.542 5.642 7.899 14.714 11.849 27.214 11.849 13.194 0 22.699-3.95 28.515-11.849 5.816-7.986 8.724-21.05 8.724-39.192V66.276h22.396v97.005c0 20.92-2.474 35.938-7.422 45.052-10.503 19.358-27.821 29.037-51.953 29.037-20.92 0-36.415-5.729-46.485-17.187-9.982-11.459-14.974-29.08-14.974-52.865V66.276Zm164.454 167.057V91.927h25.65v26.563c11.808-19.792 27.866-29.688 48.179-29.688 26.821 0 40.233 15.929 40.233 47.786v96.745h-25.65V143.62c0-11.025-1.737-18.837-5.208-23.437-3.388-4.688-9.117-7.032-17.188-7.032-12.85 0-26.304 9.245-40.366 27.734v92.448h-25.65Zm210.937 0V111.198h-51.433V91.927h77.083v141.406h-25.65Zm-3.254-173.437V27.734h32.158v32.162h-32.158Zm221.483 10.287v22.265c-18.837-7.292-35.591-10.938-50.258-10.938-23.179 0-34.767 7.813-34.767 23.438 0 6.337 2.171 11.458 6.509 15.364 4.341 3.82 12.371 7.77 24.091 11.85l16.405 5.729 15.625 5.338c24.22 8.507 36.329 22.917 36.329 43.229 0 15.452-6.209 27.822-18.621 37.109-12.325 9.202-28.863 13.803-49.608 13.803-14.413 0-33.03-3.082-55.863-9.245v-25.391c22.746 10.243 41.625 15.365 56.642 15.365 12.675 0 22.787-2.474 30.341-7.422 7.55-5.035 11.325-11.762 11.325-20.182 0-6.424-2.254-11.502-6.77-15.235-4.426-3.732-13.63-8.159-27.605-13.281l-17.187-6.25c-17.1-6.337-28.992-12.847-35.675-19.531-6.6-6.684-9.896-15.582-9.896-26.693 0-15.017 5.075-26.649 15.233-34.896 10.242-8.246 24.609-12.369 43.1-12.369 15.017 0 31.9 2.647 50.65 7.942ZM1018.1 216.277c-15.538 13.021-31.033 19.531-46.483 19.531-12.938 0-23.613-3.689-32.034-11.067-8.333-7.379-12.5-16.71-12.5-27.995 0-14.67 6.509-26.476 19.534-35.417 13.016-8.941 30.208-13.411 51.558-13.411h15.887v-12.11c0-9.982-2.212-17.1-6.641-21.354-4.425-4.253-11.763-6.38-22.004-6.38-14.842 0-30.209 4.167-46.092 12.5V98.568c18.225-6.51 35.329-9.765 51.3-9.765 17.967 0 30.642 3.559 38.021 10.677 7.466 7.118 11.196 19.401 11.196 36.849v59.245c0 8.507.912 14.323 2.737 17.448 1.821 3.038 5.25 4.557 10.288 4.557 1.645 0 4.337-.434 8.07-1.302l2.346 15.365c-8.596 2.777-15.108 4.166-19.533 4.166-12.675 0-21.225-6.51-25.65-19.531Zm-4.038-16.667v-35.677h-7.683c-35.154 0-52.733 9.505-52.733 28.516 0 6.857 2.258 12.369 6.771 16.536 4.512 4.167 10.504 6.25 17.966 6.25 11.2 0 23.092-5.208 35.679-15.625Zm199.48 33.594c-12.846 2.257-25.259 3.385-37.242 3.385-20.917 0-35.154-3.732-42.708-11.197-7.55-7.553-11.325-21.789-11.325-42.708v-68.23h-35.288v-19.27l35.288-.001V64.714h25.779v30.469l62.629.001v19.27h-62.629v72.396c0 8.073.479 13.629 1.433 16.667 1.042 3.038 3.213 5.685 6.513 7.942 5.9 3.907 14.495 5.859 25.779 5.859 10.679 0 21.267-1.215 31.771-3.645v19.531Z"/>
</svg>
